<?xml version="1.0"?>
<svg width="50" height="50" xmlns="http://www.w3.org/2000/svg" xmlns:svg="http://www.w3.org/2000/svg">
 <g>
  <title>Layer 1</title>
  <g id="svg_1">
   <polygon points="24.923182487487793,-0.002964019775390625 0.02318286895751953,8.297036170959473 4.0231828689575195,39.0970344543457 24.923182487487793,49.99703598022461 46.02318286895752,38.99703598022461 49.923184394836426,8.097036361694336 " fill="#ffffff" id="svg_2"/>
   <polygon points="47.423184394836426,9.897035598754883 24.823182106018066,2.5970358848571777 24.823182106018066,47.397037506103516 43.823182106018066,37.49703598022461 " fill="#ffffff" id="svg_3"/>
   <polygon points="2.823183059692383,9.99703598022461 6.223182678222656,37.5970344543457 24.823182106018066,47.397037506103516 24.823182106018066,2.5970358848571777 " fill="#ffffff" id="svg_4"/>
   <path d="m31.017111,26.392l-6.200001,2.799999l-6.6,0l-3.099999,7.30002l-5.7,0.099998l15.4,-32.500008l6.199989,22.3l0,-0.00001l0.000011,0zm-0.6,-1.4l-5.6,-10.400001l-4.6,10.3l4.5,0l5.700001,0.1z" fill="#046dd5" id="svg_5"/>
   <polygon points="24.823182106018066,4.197035789489746 24.923182487487793,14.597036361694336 30.123181343078613,24.897035598754883 24.823182106018066,24.897035598754883 24.823182106018066,29.197036743164062 32.02318286895752,29.197036743164062 35.423184394836426,36.5970344543457 40.923184394836426,36.69703674316406 " fill="#046dd5" id="svg_6"/>
  </g>
 </g>
</svg>