<?xml version="1.0" encoding="utf-8"?>
<!-- Generator: Adobe Illustrator 18.1.1, SVG Export Plug-In . SVG Version: 6.00 Build 0)  -->
<svg version="1.1" id="Layer_1" xmlns="http://www.w3.org/2000/svg" xmlns:xlink="http://www.w3.org/1999/xlink" x="0px" y="0px"
	 viewBox="0 0 535.5 515.9" style="enable-background:new 0 0 535.5 515.9;" xml:space="preserve">
<path style="fill:#010202;" d="M394,311.1c9.8,0,18.3-1.5,25.4-4.6c7.1-3.1,13.1-7,17.7-11.9c4.7-4.9,8.2-10.5,10.4-16.8
	c2.2-6.3,3.4-12.8,3.4-19.3c0-8.6-1.4-15.9-4.3-22c-2.9-6.1-6.6-11.3-11.3-15.6c-4.7-4.3-9.7-7.8-15-10.4l-15.3-7.6
	c-6.5-2.9-11.5-5.3-15-7.3s-5.2-4.3-5.2-6.7c0-4.1,1.5-6.6,4.6-7.6c3.1-1,5.2-1.5,6.4-1.5c10.2,0,18.4,3.5,24.5,10.4
	c2.9,2,5.5,2.9,8,2.4c2.9,0,5.1-1.4,6.7-4.3l11.6-18.4c2.9-4.1,2.4-8-1.2-11.6c-12.6-12.6-29-19-49-19c-16.3,0-29.7,4.8-40.1,14.4
	c-10.4,9.6-15.6,21.7-15.6,36.4c0,8.6,1.4,15.7,4.3,21.4c2.9,5.7,6.5,10.6,11,14.7c4.5,4.1,9.4,7.4,14.7,10.1s10.4,5,15.3,7
	c7.3,3.3,12.8,6.1,16.2,8.6c3.5,2.4,5.2,5.3,5.2,8.6c0,6.9-4.7,10.4-14.1,10.4c-11,0-20.4-4.3-28.2-12.9c-1.6-2-4.1-3.1-7.3-3.1
	c-3.7,0-6.1,1.4-7.3,4.3l-12.2,19c-2.4,4.1-2.2,8,0.6,11.6C353.2,303.9,371.6,311.1,394,311.1z M271,311.1c9.8,0,18.4-1.5,25.7-4.6
	c7.3-3.1,13.4-7,18.1-11.9c4.7-4.9,8.2-10.5,10.4-16.8c2.2-6.3,3.4-12.8,3.4-19.3c0-8.6-1.5-15.9-4.6-22
	c-3.1-6.1-6.8-11.3-11.3-15.6c-4.5-4.3-9.5-7.8-15-10.4c-5.5-2.7-10.7-5.2-15.6-7.6c-6.1-2.9-11-5.3-14.7-7.3s-5.5-4.3-5.5-6.7
	c0-4.1,1.5-6.6,4.6-7.6s5.4-1.5,7-1.5c10.2,0,18.4,3.5,24.5,10.4c2,2.4,4.7,3.3,8,2.4c2.4,0,4.7-1.4,6.7-4.3l11.6-18.4
	c2.9-4.1,2.4-8-1.2-11.6c-12.6-12.6-29-19-49-19c-16.3,0-29.7,4.8-40.1,14.4c-10.4,9.6-15.6,21.7-15.6,36.4c0,8.6,1.4,15.7,4.3,21.4
	c2.9,5.7,6.5,10.6,11,14.7s9.3,7.4,14.4,10.1c5.1,2.7,10.1,5,15,7c7.8,3.3,13.4,6.1,16.8,8.6s5.2,5.3,5.2,8.6
	c0,6.9-4.7,10.4-14.1,10.4c-11.4,0-20.8-4.3-28.2-12.9c-1.6-2-4.3-3.1-8-3.1c-3.3,0-5.5,1.4-6.7,4.3l-12.9,19
	c-2.4,4.5-2,8.4,1.2,11.6C230,303.9,248.2,311.1,271,311.1z M201.8,271.3c1.2-2.4,1.2-4.9,0-7.3c-0.8-2.4-2.4-4.1-4.9-4.9l-20.2-9.2
	c-2.4-1.2-4.9-1.2-7.3,0c-2.9,1.2-4.5,3.1-4.9,5.5c-0.8,2-2.7,5.1-5.5,9.2s-7.1,6.1-12.9,6.1c-7.8,0-14.1-4.2-19-12.5
	c-4.9-8.4-7.3-19.3-7.3-32.7c0-13.5,2.4-24.5,7.3-33s11.2-12.8,19-12.8c4.9,0,8.8,1.6,11.6,4.9s5.1,6.5,6.7,9.8
	c1.2,2.4,3.1,4.1,5.5,4.9s4.7,0.8,6.7,0l20.2-9.2c2.9-1.2,4.5-3.1,4.9-5.5c0.8-2.9,0.6-5.3-0.6-7.3c-11.8-25.3-30.2-37.9-55.1-37.9
	c-20.8,0-37.6,8-50.5,23.9s-19.3,36.7-19.3,62.4s6.4,46.4,19.3,62.1s29.7,23.6,50.5,23.6C171,311.1,189.6,297.8,201.8,271.3z
	 M517.6,0.2c5.3,0,9.7,1.7,13.2,5.2s5.2,7.9,5.2,13.2v384.3c0,3.7-1.1,7.1-3.4,10.4s-5,5.5-8.3,6.7l-248.5,94.9
	c-1.6,0.8-3.9,1.2-6.7,1.2c-2.9,0-5.1-0.4-6.7-1.2L12.7,420c-3.7-1.2-6.6-3.5-8.9-6.7c-2.2-3.3-3.4-6.7-3.4-10.4V18.5
	c0-5.3,1.8-9.7,5.5-13.2s8-5.2,12.9-5.2H517.6L517.6,0.2z"/>
</svg>
