<?xml version="1.0" encoding="utf-8"?>
<!-- Generator: Adobe Illustrator 18.1.1, SVG Export Plug-In . SVG Version: 6.00 Build 0)  -->
<svg version="1.1" id="Layer_1" xmlns="http://www.w3.org/2000/svg" xmlns:xlink="http://www.w3.org/1999/xlink" x="0px" y="0px"
	 viewBox="0 0 91.9 91.9" style="enable-background:new 0 0 91.9 91.9;" xml:space="preserve">
<g>
	<path style="fill:#010202;" d="M89.5,42L49.4,1.9c-2.3-2.3-6.1-2.3-8.4,0l-8.3,8.3l10.6,10.6c2.5-0.8,5.3-0.3,7.2,1.7
		c2,2,2.5,4.8,1.7,7.3l10.2,10.2c2.5-0.8,5.3-0.3,7.3,1.7c2.8,2.7,2.8,7.2,0,10c-2.8,2.8-7.2,2.8-10,0c-2.1-2.1-2.6-5.1-1.5-7.7
		l-9.5-9.5v25c0.7,0.3,1.3,0.8,1.9,1.3c2.8,2.7,2.8,7.2,0,10c-2.8,2.7-7.2,2.7-10,0c-2.8-2.8-2.8-7.2,0-10c0.7-0.7,1.5-1.2,2.3-1.5
		V34c-0.8-0.3-1.6-0.9-2.3-1.5c-2.1-2.1-2.6-5.1-1.5-7.7L28.6,14.3L1.1,41.8c-2.3,2.3-2.3,6.1,0,8.4l40.1,40.1
		c2.3,2.3,6.1,2.3,8.4,0l39.9-39.9C91.9,48.1,91.9,44.3,89.5,42z"/>
</g>
</svg>
