<?xml version="1.0" encoding="utf-8"?>
<!-- Generator: Adobe Illustrator 18.1.1, SVG Export Plug-In . SVG Version: 6.00 Build 0)  -->
<svg version="1.1" id="Layer_1" xmlns="http://www.w3.org/2000/svg" xmlns:xlink="http://www.w3.org/1999/xlink" x="0px" y="0px"
	 viewBox="0 0 94.1 94.1" style="enable-background:new 0 0 94.1 94.1;" xml:space="preserve">
<path style="fill:#06070F;" d="M5.9,21.9C-2.4,34.3-1.3,50.4,5,63.5c0.2,0.3,0.3,0.6,0.5,0.9c0.1,0.2,0.2,0.4,0.3,0.6
	c0.1,0.1,0.1,0.2,0.2,0.3c0.1,0.2,0.2,0.4,0.3,0.6c0.2,0.4,0.4,0.7,0.6,1.1c0.1,0.2,0.2,0.4,0.3,0.6c0.2,0.4,0.5,0.8,0.7,1.1
	c0.1,0.2,0.2,0.3,0.3,0.5c0.3,0.5,0.7,1,1,1.5c0,0,0,0,0,0C9.4,71,9.4,71,9.5,71.1c0.3,0.4,0.6,0.9,0.9,1.3c0.1,0.2,0.2,0.3,0.4,0.5
	c0.3,0.4,0.6,0.7,0.9,1.1c0.1,0.1,0.2,0.3,0.3,0.4c0.4,0.5,0.8,1,1.2,1.4c0,0,0,0,0,0c0,0,0,0,0,0.1c0.4,0.4,0.8,0.9,1.2,1.3
	c0.1,0.1,0.3,0.3,0.4,0.4c0.3,0.3,0.6,0.7,1,1c0.1,0.1,0.3,0.3,0.4,0.4c0.4,0.4,0.9,0.8,1.3,1.3c0,0,0,0,0,0
	c0.1,0.1,0.2,0.1,0.2,0.2c0.4,0.4,0.8,0.7,1.2,1.1c0.2,0.1,0.3,0.3,0.5,0.4c0.3,0.3,0.7,0.5,1,0.8c0.2,0.1,0.4,0.3,0.5,0.4
	c0.4,0.3,0.8,0.6,1.1,0.8c0.1,0.1,0.3,0.2,0.4,0.3c0,0,0.1,0.1,0.1,0.1c0.4,0.3,0.7,0.5,1.1,0.8c0.2,0.1,0.3,0.2,0.5,0.3
	c0.6,0.4,1.1,0.7,1.7,1.1c0.2,0.1,0.3,0.2,0.5,0.3c0.4,0.3,0.9,0.5,1.3,0.7c0.2,0.1,0.5,0.3,0.7,0.4c0.3,0.2,0.6,0.3,0.9,0.5
	c0.1,0,0.1,0.1,0.2,0.1c0.1,0.1,0.3,0.1,0.4,0.2c0.5,0.2,1,0.5,1.5,0.7c0.1,0,0.2,0.1,0.3,0.1c0.6,0.3,1.1,0.5,1.7,0.7
	c0.1,0.1,0.3,0.1,0.4,0.2c0.5,0.2,1.1,0.4,1.6,0.6c0.1,0,0.1,0,0.2,0.1c0.6,0.2,1.2,0.4,1.8,0.6c0.1,0,0.3,0.1,0.4,0.1
	c0.6,0.2,1.2,0.4,1.9,0.5c40.3,7.6,52-25,52-25C82,80.7,64.5,84.2,48,80.3c-0.6-0.1-1.2-0.3-1.8-0.5c-0.2,0-0.3-0.1-0.5-0.1
	c-0.6-0.2-1.2-0.4-1.8-0.6c-0.1,0-0.2-0.1-0.2-0.1c-0.5-0.2-1-0.4-1.6-0.6c-0.1-0.1-0.3-0.1-0.4-0.2c-0.6-0.2-1.1-0.5-1.7-0.7
	c-0.1-0.1-0.2-0.1-0.3-0.2c-0.5-0.2-1-0.5-1.4-0.7c-0.1-0.1-0.3-0.1-0.4-0.2c-0.4-0.2-0.7-0.4-1.1-0.6c-0.2-0.1-0.5-0.3-0.7-0.4
	c-0.4-0.2-0.9-0.5-1.3-0.8c-0.1-0.1-0.3-0.2-0.4-0.3c-0.6-0.4-1.2-0.7-1.7-1.1c-0.2-0.1-0.3-0.2-0.5-0.3c-0.4-0.3-0.8-0.6-1.2-0.8
	c-0.1-0.1-0.3-0.2-0.4-0.3c-0.4-0.3-0.8-0.6-1.2-0.9c-0.2-0.1-0.3-0.3-0.5-0.4c-0.4-0.3-0.7-0.6-1-0.8c-0.2-0.1-0.3-0.3-0.5-0.4
	c-0.4-0.4-0.9-0.7-1.3-1.1c0,0-0.1-0.1-0.1-0.1c-0.5-0.4-0.9-0.9-1.4-1.3c-0.1-0.1-0.3-0.3-0.4-0.4c-0.3-0.3-0.7-0.7-1-1
	c-0.1-0.1-0.3-0.3-0.4-0.4c-0.4-0.4-0.8-0.9-1.2-1.3c0,0,0,0-0.1-0.1c-0.4-0.5-0.8-1-1.2-1.4c-0.1-0.1-0.2-0.3-0.3-0.4
	c-0.3-0.4-0.6-0.7-0.9-1.1c-0.1-0.1-0.2-0.3-0.3-0.4c-0.3-0.5-0.7-0.9-1-1.4C8.4,45.9,5.1,28,12.5,13.3"/>
<path style="fill:#06070F;" d="M31.8,11.4c-6,9-5.7,21-1,30.5c0.8,1.6,1.7,3.1,2.7,4.6c0.9,1.3,1.9,2.9,3.1,4c0.4,0.5,0.9,1,1.4,1.5
	c0.1,0.1,0.2,0.2,0.4,0.4c0.5,0.5,0.9,0.9,1.4,1.3c0,0,0,0,0.1,0.1c0,0,0,0,0,0c0.5,0.5,1.1,0.9,1.6,1.4c0.1,0.1,0.2,0.2,0.4,0.3
	c0.6,0.4,1.1,0.9,1.7,1.3c0,0,0,0,0,0c0.3,0.2,0.5,0.4,0.8,0.5c0.1,0.1,0.2,0.2,0.4,0.2c0.4,0.3,0.8,0.5,1.3,0.8
	c0.1,0,0.1,0.1,0.2,0.1c0.4,0.2,0.7,0.4,1.1,0.6c0.1,0.1,0.3,0.1,0.4,0.2c0.3,0.1,0.5,0.3,0.8,0.4c0,0,0.1,0,0.1,0.1
	c0.5,0.3,1.1,0.5,1.6,0.8c0.1,0.1,0.2,0.1,0.4,0.2c0.4,0.2,0.9,0.4,1.3,0.6c0.2,0.1,0.4,0.1,0.6,0.2c0.4,0.2,0.8,0.3,1.2,0.4
	c0.2,0.1,0.4,0.1,0.5,0.2c0.6,0.2,1.2,0.4,1.8,0.5c31.1,5.3,38.3-19.4,38.3-19.4c-6.5,9.6-19,14.2-32.4,10.7
	c-0.6-0.2-1.2-0.3-1.8-0.5c-0.2-0.1-0.4-0.1-0.5-0.2c-0.4-0.1-0.8-0.3-1.2-0.4c-0.2-0.1-0.4-0.1-0.6-0.2c-0.4-0.2-0.9-0.4-1.3-0.6
	c-0.1-0.1-0.2-0.1-0.4-0.2c-0.5-0.2-1.1-0.5-1.6-0.8c-0.3-0.1-0.5-0.3-0.8-0.4c-0.2-0.1-0.3-0.2-0.5-0.2c-0.3-0.2-0.7-0.4-1-0.6
	c-0.1,0-0.2-0.1-0.2-0.1c-0.4-0.3-0.8-0.5-1.2-0.8c-0.1-0.1-0.2-0.2-0.4-0.3c-0.3-0.2-0.5-0.4-0.8-0.6c-0.6-0.4-1.1-0.8-1.7-1.3
	c-0.1-0.1-0.3-0.2-0.4-0.3C41.4,41.5,36.8,35,34.6,27.6c-2.3-7.7-1.8-16.3,2.2-23.3"/>
<path style="fill:#06070F;" d="M53.6,3.6c-3.6,5.4-3.9,12.1-1.4,18.1c2.6,6.3,7.9,11.3,14.1,13.7c0.3,0.1,0.5,0.2,0.8,0.3
	c0.1,0,0.2,0.1,0.3,0.1c0.4,0.1,0.7,0.3,1.1,0.3c17.2,3.4,21.8-9.1,23.1-11c-4.1,6.1-10.9,7.5-19.4,5.4c-0.7-0.2-1.4-0.4-2-0.7
	c-0.8-0.3-1.6-0.6-2.4-1c-1.5-0.7-2.9-1.6-4.2-2.7C56,20.3,51.3,9,56.2-0.1"/>
</svg>
