<?xml version="1.0" encoding="utf-8"?>
<!-- Generator: Adobe Illustrator 18.1.1, SVG Export Plug-In . SVG Version: 6.00 Build 0)  -->
<svg version="1.1" id="Layer_1" xmlns="http://www.w3.org/2000/svg" xmlns:xlink="http://www.w3.org/1999/xlink" x="0px" y="0px"
	 viewBox="0 0 50 50" style="enable-background:new 0 0 50 50;" xml:space="preserve">
<path id="LinkedIn__x28_alt_x29_" style="fill:#8A8A8A;" d="M46.3,0H3.7C1.7,0,0,1.6,0,3.6v42.8c0,2,1.7,3.6,3.7,3.6h42.6
	c2,0,3.7-1.6,3.7-3.6V3.6C50,1.6,48.3,0,46.3,0z M15.2,41.9H7.6V19.3h7.6V41.9z M11.4,16.2L11.4,16.2c-2.6,0-4.2-1.7-4.2-3.9
	c0-2.2,1.7-3.9,4.3-3.9c2.6,0,4.2,1.7,4.2,3.9C15.7,14.5,14,16.2,11.4,16.2z M42.4,41.9h-7.6V29.8c0-3-1.1-5.1-3.8-5.1
	c-2.1,0-3.3,1.4-3.9,2.7c-0.2,0.5-0.3,1.2-0.3,1.8v12.6h-7.6c0,0,0.1-20.5,0-22.6h7.6v3.2c1-1.5,2.8-3.7,6.8-3.7
	c5,0,8.7,3.2,8.7,10.2C42.4,28.9,42.4,41.9,42.4,41.9z M26.8,22.6C26.9,22.5,26.9,22.5,26.8,22.6L26.8,22.6L26.8,22.6z"/>
</svg>
