<?xml version="1.0"?>
<svg width="38" height="38" xmlns="http://www.w3.org/2000/svg" xmlns:svg="http://www.w3.org/2000/svg">
 <!-- Created with SVG-edit - http://svg-edit.googlecode.com/ -->
 <g>
  <title>Layer 1</title>
  <path id="svg_1" d="m35.913544,15.297982l-35.317824,0l0,22.085158l36.834845,0l0,-22.085158c0,0 -1.517021,0 -1.517021,0zm-1.379601,1.4208l-14.210253,13.302427c-0.689798,0.645761 -1.793207,0.645761 -2.483007,0l-14.210254,-13.302427l30.903514,0l0,0zm-32.420532,0.516483l9.519085,8.911379l-9.519085,8.911694l0,-17.823072l0,0zm1.241503,18.727076l9.380992,-8.782417l4.138791,3.874569c0.551704,0.516798 1.379597,0.904001 2.207491,0.904001c0.827892,0 1.655787,-0.25824 2.207489,-0.904001l4.13879,-3.874569l9.380993,8.782417l-31.454546,0l0,0zm32.69605,-0.77504l-9.657183,-8.911379l9.519762,-8.911379l0,17.822758l0.137421,0z" fill="#ffffff"/>
 </g>
</svg>