<?xml version="1.0" encoding="utf-8"?>
<!-- Generator: Adobe Illustrator 18.1.1, SVG Export Plug-In . SVG Version: 6.00 Build 0)  -->
<svg version="1.1" id="Layer_1" xmlns="http://www.w3.org/2000/svg" xmlns:xlink="http://www.w3.org/1999/xlink" x="0px" y="0px"
	 viewBox="-31 32.1 32 32" enable-background="new -31 32.1 32 32" xml:space="preserve">
<g id="icomoon-ignore">
</g>
<path fill="#8A8A8A" d="M-2.8,39.5h-25.6v17.1h26.7V39.5C-1.7,39.5-2.8,39.5-2.8,39.5z M-3.8,40.6l-10.3,10.3
	c-0.5,0.5-1.3,0.5-1.8,0l-10.3-10.3H-3.8L-3.8,40.6z M-27.3,41l6.9,6.9l-6.9,6.9V41L-27.3,41z M-26.4,55.5l6.8-6.8l3,3
	c0.4,0.4,1,0.7,1.6,0.7c0.6,0,1.2-0.2,1.6-0.7l3-3l6.8,6.8L-26.4,55.5L-26.4,55.5z M-2.7,54.9L-9.7,48l6.9-6.9V54.9z"/>
</svg>
