<?xml version="1.0"?>
<svg width="70" height="70" xmlns="http://www.w3.org/2000/svg" xmlns:svg="http://www.w3.org/2000/svg">
 <g>
  <title>Layer 1</title>
  <path id="svg_1" fill="#ffffff" d="m35,69.900002c-1.099998,0 -2.099998,-0.199997 -3,-0.699997l-9.700001,-5.100006c-1.4,-0.699997 -0.699999,-0.999996 -0.299999,-1.099995c1.9,-0.600002 2.299999,-0.700001 4.4,-1.800003c0.200001,-0.099998 0.5,-0.099998 0.700001,0l7.4,3.899998c0.299999,0.100006 0.599998,0.100006 0.900002,0l28.900002,-14.799995c0.299995,-0.100002 0.399994,-0.400002 0.399994,-0.700001l0,-29.600002c0,-0.299999 -0.199997,-0.6 -0.399994,-0.700001l-28.900002,-14.899999c-0.299999,-0.1 -0.599998,-0.1 -0.900002,0l-28.9,14.899999c-0.3,0.1 -0.5,0.4 -0.5,0.699999l0,29.700003c0,0.299999 0.2,0.599998 0.5,0.700001l7.9,4.099998c4.299999,1.900002 6.9,-0.299999 6.9,-2.599998l0,-29.400002c0,-0.4 0.4,-0.700001 0.800001,-0.700001l3.799999,0c0.5,0 0.799999,0.300001 0.799999,0.700001l0,29.299999c0,5.099998 -3.099998,8 -8.599998,8c-1.700001,0 -3.000001,0 -6.700001,-1.599998l-7.5,-3.900002c-1.9,-1 -3,-2.799999 -3,-4.700001l0,-29.599998c0,-1.9 1.2,-3.700001 3,-4.7l29,-14.9c1.799999,-0.9 4.299999,-0.9 6.099998,0l28.900002,14.9c1.900002,0.999999 3,2.8 3,4.7l0,29.700001c0,1.900002 -1.199997,3.700001 -3,4.700001l-29,14.799995c-0.900002,0.5 -1.900002,0.700005 -3,0.700005zm22.099998,-29.5c0,-5.599998 -3.700001,-7 -11.5,-8.100002c-7.900002,-1.099998 -8.700001,-1.599998 -8.700001,-3.499998c0,-1.5 0.700001,-3.6 6.5,-3.6c5.200001,0 7.100002,1.1 7.900002,4.700001c0.099998,0.299999 0.400002,0.6 0.700001,0.6l3.299999,0c0.200001,0 0.400002,-0.1 0.5,-0.200001c0.099998,-0.200001 0.200001,-0.4 0.200001,-0.6c-0.5,-6.1 -4.5,-9 -12.600002,-9c-7.199997,0 -11.5,3.1 -11.5,8.300001c0,5.6 4.300003,7.199999 11.200001,7.9c8.299999,0.799999 8.899998,2.099998 8.899998,3.700001c0,2.899998 -2.299999,4.099998 -7.599998,4.099998c-6.700001,0 -8.200001,-1.700001 -8.700001,-5.099998c-0.099998,-0.400002 -0.399998,-0.600002 -0.700001,-0.600002l-3.299997,0c-0.400002,0 -0.700001,0.299999 -0.700001,0.700001c0,4.300003 2.300001,9.5 13.4,9.5c8.100002,0 12.700001,-3.200001 12.700001,-8.799999z"/>
 </g>
</svg>