<?xml version="1.0" encoding="utf-8"?>
<!-- Generator: Adobe Illustrator 18.1.1, SVG Export Plug-In . SVG Version: 6.00 Build 0)  -->
<svg version="1.1" id="Layer_1" xmlns="http://www.w3.org/2000/svg" xmlns:xlink="http://www.w3.org/1999/xlink" x="0px" y="0px"
	 viewBox="-31 32.1 32 32" enable-background="new -31 32.1 32 32" xml:space="preserve">
<g id="icomoon-ignore">
</g>
<path fill="#8A8A8A" d="M-7.9,33.7h-14.2c-0.8,0-1.4,0.6-1.4,1.4V61c0,0.8,0.6,1.4,1.4,1.4h14.2c0.8,0,1.4-0.6,1.4-1.4V35.1
	C-6.5,34.3-7.1,33.7-7.9,33.7z M-7.5,61c0,0.2-0.2,0.4-0.4,0.4h-14.2c-0.2,0-0.4-0.2-0.4-0.4v-5h14.9L-7.5,61L-7.5,61z M-7.5,55
	h-14.9V38h14.9V55z M-7.5,36.9h-14.9v-1.8c0-0.2,0.2-0.4,0.4-0.4h14.2c0.2,0,0.4,0.2,0.4,0.4L-7.5,36.9L-7.5,36.9z"/>
<path fill="#8A8A8A" d="M-16.6,58.2h3.2v1.1h-3.2C-16.6,59.3-16.6,58.2-16.6,58.2z"/>
</svg>
