<?xml version="1.0" encoding="utf-8"?>
<!-- Generator: Adobe Illustrator 18.1.1, SVG Export Plug-In . SVG Version: 6.00 Build 0)  -->
<svg version="1.1" id="Layer_1" xmlns="http://www.w3.org/2000/svg" xmlns:xlink="http://www.w3.org/1999/xlink" x="0px" y="0px"
	 viewBox="0 0 87.4 91.2" style="enable-background:new 0 0 87.4 91.2;" xml:space="preserve">
<g>
	<path d="M31.1,55.5V4.2c0-2.4-1.8-4.4-4-4.4H4c-2.2,0-4,2-4,4.4v51.4c0,2.4,1.8,4.4,4,4.4h23.1C29.3,59.9,31.1,58,31.1,55.5z
		 M24.4,2.5c0.6,0,1,0.5,1,1.1c0,0.6-0.5,1.1-1,1.1c-0.6,0-1-0.5-1-1.1C23.4,3,23.9,2.5,24.4,2.5z M10.2,3h10.7v1.3H10.2V3z M3,46
		V7.2h25.1V46H3z M15.5,55.6c-1.4,0-2.5-1.2-2.5-2.8c0-1.5,1.1-2.8,2.5-2.8c1.4,0,2.5,1.2,2.5,2.8C18.1,54.3,16.9,55.6,15.5,55.6z"
		/>
	<polygon points="61,35.6 66,35.6 66,15.5 66,9.9 61,9.9 36.2,9.9 36.2,15.5 61,15.5 	"/>
	<polygon points="17.1,63.6 12,63.6 12,76.8 12,82.3 17.1,82.3 32.3,82.3 32.3,76.8 17.1,76.8 	"/>
	<path d="M84,38.6H40h-3.4v3.7v34.3v3.8h20.2l0,9l-5.1,0v2.1h5.1h10.2h5.1v-2.1l-5.2,0v-9h20.3v-3.8V42.3v-3.7H84z M84.6,76.7H40
		V42.5h44.6V76.7z"/>
</g>
</svg>
