<?xml version="1.0"?>
<svg width="50" height="50" xmlns="http://www.w3.org/2000/svg" xmlns:svg="http://www.w3.org/2000/svg">
 <g>
  <title>Layer 1</title>
  <g id="svg_1">
   <path id="svg_2" fill="#ffffff" d="m18.1,30.4l0,-28.1c0,-1.3 -1,-2.4 -2.200001,-2.4l-12.7,0c-1.2,0 -2.2,1.1 -2.2,2.4l0,28.2c0,1.299999 1,2.400002 2.2,2.400002l12.7,0c1.200001,-0.100002 2.200001,-1.100002 2.200001,-2.500002zm-3.700001,-29c0.3,0 0.6,0.2 0.6,0.6s-0.3,0.6 -0.5,0.6c-0.3,0 -0.5,-0.3 -0.5,-0.6s0.1,-0.6 0.4,-0.6zm-7.8,0.2l5.9,0l0,0.7l-5.9,0l0,-0.7zm-3.9,23.600001l0,-21.300001l13.8,0l0,21.300001c0,0 -13.8,0 -13.8,0zm6.8,5.299999c-0.8,0 -1.4,-0.700001 -1.4,-1.5s0.599999,-1.5 1.4,-1.5c0.8,0 1.4,0.700001 1.4,1.5c0.1,0.799999 -0.599999,1.5 -1.4,1.5z"/>
   <polygon id="svg_3" fill="#ffffff" points="34.5,19.5 37.2,19.5 37.2,8.5 37.2,5.4 34.5,5.4 20.9,5.4 20.9,8.5 34.5,8.5  "/>
   <polygon id="svg_4" fill="#ffffff" points="10.4,34.9 7.6,34.9 7.6,42.1 7.6,45.1 10.4,45.1 18.7,45.1 18.7,42.1 10.4,42.1  "/>
   <path id="svg_5" fill="#ffffff" d="m47.099998,21.200001l-24.099998,0l-1.9,0l0,2l0,18.799999l0,2.099998l11.1,0l0,4.900002l-2.800001,0l0,1.200001l2.800001,0l5.599998,0l2.799999,0l0,-1.200001l-2.899998,0l0,-4.900002l11.099998,0l0,-2.099998l0,-18.799999l0,-2l-1.700001,0zm0.300003,20.899998l-24.400002,0l0,-18.799999l24.5,0l-0.099998,18.799999l0,0z"/>
  </g>
 </g>
</svg>