<?xml version="1.0"?>
<svg width="50" height="50" xmlns="http://www.w3.org/2000/svg" xmlns:svg="http://www.w3.org/2000/svg">
 <g>
  <title>Layer 1</title>
  <path d="m25,0c13.799995,0 25,11.200001 25,25c0,13.799999 -11.200005,25 -25,25c-13.799999,0 -25,-11.200001 -25,-25c0,-13.799999 11.200001,-25 25,-25l0,0z" fill="#ffffff" clip-rule="evenodd" fill-rule="evenodd" id="svg_1"/>
  <g id="svg_2">
   <path d="m40.700001,10.7c-1.100002,-4.4 -8.5,-5.9 -15.5,-3.4c-4.1,1.5 -8.6,3.8 -11.900001,6.8c-3.8,3.6 -4.400001,6.699999 -4.2,8c0.9,4.6 7.199999,7.6 9.799999,9.9l0,0c-0.799999,0.400002 -6.4,3.200001 -7.7,6.099998c-1.4,3.100002 0.2,5.300003 1.3,5.5c3.3,0.900002 6.700001,-0.699997 8.5,-3.399998c1.700001,-2.600002 1.6,-6 0.799999,-7.700001c1,-0.299999 2.300001,-0.400002 3.800001,-0.200001c4.4,0.5 5.199999,3.299999 5.1,4.400002c-0.200001,1.099998 -1.1,1.799999 -1.400002,2c-0.299999,0.200001 -0.4,0.299999 -0.4,0.399998c0,0.200001 0.200001,0.200001 0.4,0.200001c0.400002,-0.099998 2.300001,-0.899998 2.400002,-3.099998c0.099998,-2.700001 -2.5,-5.700001 -7,-5.6c-1.900002,0 -3.1,0.199999 -3.900002,0.5c-0.099998,-0.1 -0.099998,-0.1 -0.199999,-0.200001c-2.800001,-3 -8,-5.1 -7.8,-9.199999c0.099999,-1.5 0.599999,-5.300001 9.999999,-10.000001c7.700001,-3.8 13.900002,-2.8 15,-0.4c1.5,3.4 -3.299999,9.599999 -11.299999,10.499999c-3.1,0.300001 -4.700001,-0.799999 -5.1,-1.299999c-0.4,-0.5 -0.5,-0.5 -0.6,-0.4c-0.299999,0.1 -0.099998,0.6 0,0.799999c0.200001,0.6 1.200001,1.700001 2.900002,2.300001c1.5,0.5 5.099998,0.699999 9.399998,-0.900002c4.900002,-2 8.700001,-7.299999 7.600002,-11.599999zm-20.6,22.599999c0.4,1.299999 0.299999,2.600002 -0.1,3.700001c0,0.099998 -0.1,0.299999 -0.1,0.400002c0,0.099998 -0.1,0.199997 -0.199999,0.399998c-0.300001,0.600002 -0.700001,1.200001 -1.200001,1.700001c-1.5,1.599998 -3.5,2.200001 -4.4,1.700001c-0.900001,-0.5 -0.5,-2.799999 1.2,-4.600002c1.8,-1.899998 4.400001,-3.099998 4.400001,-3.099998l0,0c0.199999,-0.099998 0.299999,-0.099998 0.4,-0.200001z" fill="#046dd5" id="svg_3"/>
  </g>
 </g>
</svg>