<?xml version="1.0" encoding="utf-8"?>
<!-- Generator: Adobe Illustrator 18.1.1, SVG Export Plug-In . SVG Version: 6.00 Build 0)  -->
<svg version="1.1" id="Layer_1" xmlns="http://www.w3.org/2000/svg" xmlns:xlink="http://www.w3.org/1999/xlink" x="0px" y="0px"
	 viewBox="0 0 50 50" style="enable-background:new 0 0 50 50;" xml:space="preserve">
<g>
	<polygon style="fill:#B4B4B4;" points="24.9,0 0,8.3 4,39.1 24.9,50 46,39 49.9,8.1 	"/>
	<polygon style="fill:#A61916;" points="47.4,9.9 24.8,2.6 24.8,47.4 43.8,37.5 	"/>
	<polygon style="fill:#DE1E19;" points="2.8,10 6.2,37.6 24.8,47.4 24.8,2.6 	"/>
	<path style="fill:#F2F2F2;" d="M31,26.5l-6.2,2.8h-6.6l-3.1,7.3l-5.7,0.1L24.8,4.2L31,26.5z M30.4,25.1l-5.6-10.4l-4.6,10.3h4.5
		L30.4,25.1z"/>
	<polygon style="fill:#B4B4B4;" points="24.8,4.2 24.9,14.6 30.1,24.9 24.8,24.9 24.8,29.2 32,29.2 35.4,36.6 40.9,36.7 	"/>
</g>
</svg>
