<?xml version="1.0"?>
<svg width="50" height="50" xmlns="http://www.w3.org/2000/svg" xmlns:svg="http://www.w3.org/2000/svg">
 <g>
  <title>Layer 1</title>
  <g id="svg_1">
   <polygon id="svg_2" fill="#000000" points="24.923182487487793,-0.002964019775390625 0.02318286895751953,8.297036170959473 4.0231828689575195,39.0970344543457 24.923182487487793,49.99703598022461 46.02318286895752,38.99703598022461 49.923184394836426,8.097036361694336 "/>
   <polygon id="svg_3" fill="#000000" points="47.423184394836426,9.897035598754883 24.823182106018066,2.5970358848571777 24.823182106018066,47.397037506103516 43.823182106018066,37.49703598022461 "/>
   <polygon id="svg_4" fill="#000000" points="2.823183059692383,9.99703598022461 6.223182678222656,37.5970344543457 24.823182106018066,47.397037506103516 24.823182106018066,2.5970358848571777 "/>
   <path id="svg_5" fill="#f4f4f4" d="m31.017105,26.392004l-6.199993,2.799999l-6.600002,0l-3.099998,7.30002l-5.699999,0.099998l15.399999,-32.500016l6.199993,22.3l0,-0.000002zm-0.599998,-1.4l-5.599995,-10.400002l-4.600002,10.300001l4.500002,0l5.699995,0.1z"/>
   <polygon id="svg_6" fill="#f4f4f4" points="24.823182106018066,4.197035789489746 24.923182487487793,14.597036361694336 30.123181343078613,24.897035598754883 24.823182106018066,24.897035598754883 24.823182106018066,29.197036743164062 32.02318286895752,29.197036743164062 35.423184394836426,36.5970344543457 40.923184394836426,36.69703674316406 "/>
  </g>
 </g>
</svg>