<?xml version="1.0" encoding="utf-8"?>
<!-- Generator: Adobe Illustrator 18.1.1, SVG Export Plug-In . SVG Version: 6.00 Build 0)  -->
<svg version="1.1" id="Layer_1" xmlns="http://www.w3.org/2000/svg" xmlns:xlink="http://www.w3.org/1999/xlink" x="0px" y="0px"
	 viewBox="0 0 50 50" style="enable-background:new 0 0 50 50;" xml:space="preserve">
<g>
	<path style="fill:#010202;" d="M49,22.8L27.2,1c-1.3-1.3-3.3-1.3-4.6,0l-4.5,4.5l5.8,5.8c1.4-0.4,2.9-0.2,3.9,0.9
		c1.1,1.1,1.4,2.6,0.9,4l5.5,5.5c1.4-0.4,2.9-0.2,4,0.9c1.5,1.5,1.5,3.9,0,5.4s-3.9,1.5-5.4,0c-1.1-1.1-1.4-2.8-0.8-4.2l-5.2-5.2
		v13.6c0.4,0.2,0.7,0.4,1,0.7c1.5,1.5,1.5,3.9,0,5.4s-3.9,1.5-5.4,0s-1.5-3.9,0-5.4c0.4-0.4,0.8-0.7,1.3-0.8V18.4
		c-0.4-0.2-0.9-0.5-1.3-0.8c-1.1-1.1-1.4-2.8-0.8-4.2l-5.7-5.7l-15,15c-1.3,1.3-1.3,3.3,0,4.6L22.7,49c1.3,1.3,3.3,1.3,4.6,0
		L49,27.3C50.3,26.1,50.3,24,49,22.8z"/>
</g>
</svg>
