<?xml version="1.0"?>
<svg width="50" height="50" xmlns="http://www.w3.org/2000/svg" xmlns:svg="http://www.w3.org/2000/svg">
 <g>
  <title>Layer 1</title>
  <g id="svg_1">
   <path id="svg_2" fill="#ffffff" d="m49,22.799999l-21.799999,-21.799999c-1.299999,-1.3 -3.299999,-1.3 -4.6,0l-4.5,4.5l5.800001,5.8c1.4,-0.400001 2.9,-0.2 3.9,0.9c1.1,1.1 1.4,2.6 0.9,4.000001l5.5,5.5c1.400002,-0.400002 2.900002,-0.200001 4,0.9c1.5,1.5 1.5,3.9 0,5.4s-3.900002,1.5 -5.400002,0c-1.099998,-1.1 -1.399998,-2.799999 -0.799999,-4.199999l-5.199999,-5.200001l0,13.6c0.4,0.200001 0.700001,0.400002 1,0.700001c1.5,1.5 1.5,3.899998 0,5.399998s-3.9,1.5 -5.4,0s-1.5,-3.899998 0,-5.399998c0.4,-0.400002 0.799999,-0.700001 1.299999,-0.799999l0,-13.700003c-0.4,-0.199999 -0.9,-0.5 -1.299999,-0.799999c-1.1,-1.1 -1.4,-2.8 -0.800001,-4.200001l-5.699998,-5.7l-15.000001,15.000001c-1.3,1.299999 -1.3,3.299999 0,4.599998l21.8,21.700001c1.300001,1.299999 3.300001,1.299999 4.6,0l21.699999,-21.700001c1.299999,-1.199999 1.299999,-3.299999 0,-4.5z"/>
  </g>
 </g>
</svg>