<?xml version="1.0"?>
<svg width="512" height="512" xmlns="http://www.w3.org/2000/svg" xmlns:svg="http://www.w3.org/2000/svg">
 <g>
  <title>Layer 1</title>
  <rect id="svg_2" height="512.245337" width="513.333342" y="-0.239979" x="-0.857437" stroke-linecap="null" stroke-linejoin="null" stroke-dasharray="null" stroke-width="null" fill="#046dd5"/>
 </g>
 <g>
  <title>Layer 1 copy copy</title>
  <path id="svg_5" d="m35.787567,0.185176l41.072014,460.815008l184.377846,51.184998l184.862091,-51.261963l41.149963,-460.738042l-451.461853,0l-0.000061,0zm362.045929,150.71404l-0.194977,0l-216.075012,0l5.150955,57.874969l205.984055,0l-15.520996,173.50502l-115.669067,32.088013l-0.115082,0.039001l-0.076935,0l-0.061035,0l-115.785889,-32.127014l-7.915039,-88.756012l56.74704,0l4.023987,45.115997l62.931,16.958038l0.138885,-0.039032l62.967133,-16.996002l6.534973,-73.274994l-195.86998,0l-15.247093,-170.900017l283.107033,0l-5.054016,56.512032l0.000061,0z" fill="#ffffff"/>
 </g>
</svg>