<?xml version="1.0" encoding="utf-8"?>
<!-- Generator: Adobe Illustrator 18.1.1, SVG Export Plug-In . SVG Version: 6.00 Build 0)  -->
<svg version="1.1" id="Layer_1" xmlns="http://www.w3.org/2000/svg" xmlns:xlink="http://www.w3.org/1999/xlink" x="0px" y="0px"
	 viewBox="0 0 50 50" style="enable-background:new 0 0 50 50;" xml:space="preserve">
<polygon style="fill:#1773B8;" points="0.2,0 49.9,0 45.5,45 25.1,50 4.6,45 "/>
<polygon style="fill:#35A9DE;" points="24.8,2.8 45.2,2.8 41.3,41.2 24.8,45.5 "/>
<g>
	<polygon style="fill:#F1F1F2;" points="37.5,6 9.1,6 9.7,12.2 33.5,12.2 32.7,18.5 10.3,18.5 10.9,24.6 32.4,24.6 31.6,33.1 
		24.6,34.8 17.7,33.1 17.3,28 11.2,28 12.1,38.1 24.9,41.6 37.5,38.1 40.6,6 	"/>
</g>
<g>
	<polygon style="fill:none;" points="32.7,18.5 33.5,12.2 24.8,12.2 24.8,18.5 	"/>
	<polygon style="fill:none;" points="31.6,33.1 32.4,24.6 24.8,24.6 24.8,34.7 	"/>
	<polygon style="fill:#FFFFFF;" points="37.5,6 24.6,6 24.6,12.2 33.4,12.2 32.6,18.5 24.6,18.5 24.6,24.6 32.3,24.6 31.5,33.1 
		24.6,34.7 24.6,41.6 24.7,41.7 37.5,38.2 40.6,6 	"/>
</g>
</svg>
