<?xml version="1.0"?>
<svg width="94.1" height="94.1" xmlns="http://www.w3.org/2000/svg" xmlns:svg="http://www.w3.org/2000/svg">
 <g>
  <title>Layer 1</title>
  <path id="svg_1" fill="#ffffff" d="m5.9,21.9c-8.3,12.4 -7.2,28.500002 -0.9,41.6c0.2,0.299999 0.3,0.599998 0.5,0.900002c0.1,0.199997 0.2,0.400002 0.3,0.599998c0.1,0.099998 0.1,0.199997 0.2,0.300003c0.1,0.199997 0.2,0.399994 0.3,0.599998c0.2,0.400002 0.4,0.699997 0.6,1.099998c0.1,0.199997 0.2,0.400002 0.3,0.599998c0.2,0.400002 0.5,0.800003 0.7,1.099998c0.1,0.200005 0.2,0.300003 0.3,0.5c0.3,0.5 0.7,1 1,1.5c0,0 0,0 0,0c0.2,0.300003 0.2,0.300003 0.3,0.400002c0.3,0.400002 0.6,0.900002 0.9,1.300003c0.1,0.199997 0.200001,0.299995 0.400001,0.5c0.3,0.400002 0.599999,0.699997 0.9,1.099998c0.1,0.099998 0.2,0.300003 0.3,0.400002c0.4,0.5 0.8,1 1.2,1.400002c0,0 0,0 0,0c0,0 0,0 0,0.099998c0.400001,0.400002 0.8,0.900002 1.2,1.299995c0.1,0.100006 0.3,0.300003 0.400001,0.400002c0.3,0.300003 0.599999,0.700005 1,1c0.099999,0.099998 0.3,0.300003 0.400001,0.400002c0.4,0.400002 0.9,0.800003 1.299999,1.300003c0,0 0,0 0,0c0.1,0.099998 0.200001,0.099998 0.200001,0.199997c0.4,0.400002 0.799999,0.699997 1.199999,1.099998c0.200001,0.099998 0.300001,0.300003 0.5,0.400002c0.300001,0.300003 0.700001,0.5 1,0.800003c0.200001,0.099998 0.4,0.299995 0.5,0.399994c0.4,0.300003 0.800001,0.600006 1.1,0.800003c0.1,0.099998 0.299999,0.199997 0.4,0.300003c0,0 0.1,0.099998 0.1,0.099998c0.4,0.299995 0.700001,0.5 1.1,0.799995c0.199999,0.100006 0.299999,0.200005 0.5,0.300003c0.6,0.400002 1.1,0.699997 1.699999,1.099998c0.200001,0.099998 0.300001,0.200005 0.5,0.300003c0.400002,0.299995 0.900002,0.5 1.300001,0.699997c0.199999,0.099998 0.5,0.300003 0.699999,0.400002c0.300001,0.199997 0.6,0.300003 0.900002,0.5c0.099998,0 0.099998,0.099998 0.199999,0.099998c0.1,0.099998 0.300001,0.099998 0.4,0.200005c0.5,0.199997 1,0.5 1.5,0.699997c0.1,0 0.200001,0.099998 0.300001,0.099998c0.6,0.300003 1.1,0.5 1.699999,0.700005c0.100002,0.099998 0.299999,0.099998 0.400002,0.199997c0.5,0.199997 1.099998,0.400002 1.599998,0.599998c0.100002,0 0.100002,0 0.200001,0.099998c0.599998,0.200005 1.200001,0.400002 1.799999,0.600006c0.100002,0 0.299999,0.099998 0.400002,0.099998c0.599998,0.199997 1.200001,0.400002 1.899998,0.5c40.300003,7.599998 52,-25 52,-25c-9.599998,13.299995 -27.099998,16.799995 -43.599998,12.900002c-0.599998,-0.100006 -1.200001,-0.300003 -1.799999,-0.5c-0.200001,0 -0.299999,-0.100006 -0.5,-0.100006c-0.600002,-0.199997 -1.200001,-0.399994 -1.799999,-0.599998c-0.100002,0 -0.200001,-0.099998 -0.200001,-0.099998c-0.5,-0.199997 -1,-0.400002 -1.600002,-0.599998c-0.099998,-0.099998 -0.299999,-0.099998 -0.399998,-0.200005c-0.600002,-0.199997 -1.100002,-0.5 -1.700001,-0.699997c-0.099998,-0.099998 -0.200001,-0.099998 -0.299999,-0.199997c-0.5,-0.200005 -1,-0.5 -1.400002,-0.700005c-0.099998,-0.099998 -0.299999,-0.099998 -0.399998,-0.199997c-0.400002,-0.200005 -0.700001,-0.400002 -1.100002,-0.599998c-0.200001,-0.100006 -0.5,-0.300003 -0.700001,-0.400002c-0.399998,-0.200005 -0.899998,-0.5 -1.299999,-0.800003c-0.099998,-0.099998 -0.299999,-0.199997 -0.399998,-0.299995c-0.600002,-0.400002 -1.200001,-0.700005 -1.700001,-1.100006c-0.200001,-0.099998 -0.299999,-0.199997 -0.5,-0.299995c-0.400002,-0.300003 -0.800001,-0.599998 -1.200001,-0.800003c-0.1,-0.099998 -0.299999,-0.199997 -0.4,-0.299995c-0.4,-0.300003 -0.800001,-0.600006 -1.200001,-0.900002c-0.199999,-0.099998 -0.299999,-0.300003 -0.5,-0.400002c-0.4,-0.300003 -0.699999,-0.599998 -1,-0.800003c-0.199999,-0.099998 -0.299999,-0.299995 -0.5,-0.399994c-0.4,-0.400002 -0.9,-0.700005 -1.299999,-1.100006c0,0 -0.1,-0.099998 -0.1,-0.099998c-0.5,-0.400002 -0.9,-0.900002 -1.4,-1.299995c-0.1,-0.100006 -0.300001,-0.300003 -0.4,-0.400002c-0.300001,-0.300003 -0.700001,-0.700005 -1,-1c-0.1,-0.099998 -0.300001,-0.300003 -0.400002,-0.400002c-0.4,-0.400002 -0.799999,-0.900002 -1.199999,-1.299999c0,0 0,0 -0.1,-0.100002c-0.4,-0.5 -0.799999,-1 -1.200001,-1.399998c-0.099998,-0.100002 -0.199999,-0.299999 -0.299999,-0.400002c-0.299999,-0.399998 -0.6,-0.700001 -0.9,-1.099998c-0.1,-0.100002 -0.200001,-0.299999 -0.300001,-0.400002c-0.299999,-0.5 -0.699999,-0.899998 -1,-1.399998c-9.4,-13 -12.699999,-30.900002 -5.299999,-45.600001"/>
  <path id="svg_2" fill="#ffffff" d="m31.799999,11.4c-6,9 -5.699999,21.000002 -1,30.500002c0.800001,1.599998 1.700001,3.099998 2.700001,4.599998c0.900002,1.299999 1.900002,2.900002 3.099998,4c0.400002,0.5 0.900002,1 1.400002,1.5c0.099998,0.099998 0.200001,0.200001 0.400002,0.400002c0.5,0.5 0.899998,0.899998 1.399998,1.299999c0,0 0,0 0.100002,0.099998c0,0 0,0 0,0c0.5,0.5 1.099998,0.900002 1.599998,1.400002c0.099998,0.099998 0.200001,0.200001 0.400002,0.299999c0.599998,0.400002 1.099998,0.900002 1.699997,1.299999c0,0 0,0 0,0c0.300003,0.200001 0.5,0.400002 0.800003,0.5c0.099998,0.100002 0.199997,0.200001 0.399998,0.200001c0.400002,0.299999 0.799999,0.5 1.299999,0.799999c0.100002,0 0.100002,0.100002 0.200001,0.100002c0.400002,0.199997 0.700001,0.399998 1.100002,0.599998c0.099998,0.099998 0.299999,0.099998 0.399998,0.200001c0.299999,0.099998 0.5,0.299999 0.799999,0.399998c0,0 0.100002,0 0.100002,0.100002c0.5,0.299999 1.099998,0.5 1.599998,0.799999c0.100002,0.099998 0.200001,0.099998 0.400002,0.200001c0.399998,0.200001 0.899998,0.399998 1.299999,0.599998c0.200001,0.100002 0.400002,0.100002 0.599998,0.200001c0.400002,0.200001 0.800003,0.299999 1.200001,0.400002c0.200001,0.099998 0.400002,0.099998 0.5,0.199997c0.600002,0.200001 1.200001,0.400002 1.799999,0.5c31.099998,5.300003 38.300003,-19.399998 38.300003,-19.399998c-6.5,9.599998 -19,14.200001 -32.400002,10.700001c-0.599998,-0.200001 -1.200001,-0.300003 -1.799999,-0.5c-0.200001,-0.100002 -0.400002,-0.100002 -0.5,-0.200001c-0.400002,-0.100002 -0.799999,-0.299999 -1.200001,-0.400002c-0.200001,-0.099998 -0.400002,-0.099998 -0.599998,-0.200001c-0.400002,-0.199997 -0.900002,-0.399998 -1.300003,-0.599998c-0.099998,-0.099998 -0.199997,-0.099998 -0.399998,-0.200001c-0.5,-0.200001 -1.100002,-0.5 -1.600002,-0.799999c-0.299999,-0.099998 -0.5,-0.299999 -0.799999,-0.400002c-0.200001,-0.099998 -0.299999,-0.199997 -0.5,-0.199997c-0.299999,-0.200001 -0.700001,-0.400002 -1,-0.600002c-0.099998,0 -0.200001,-0.099998 -0.200001,-0.099998c-0.399998,-0.299999 -0.799999,-0.5 -1.199997,-0.799999c-0.100002,-0.100002 -0.200001,-0.200001 -0.400002,-0.300003c-0.299999,-0.199997 -0.5,-0.399998 -0.799999,-0.599998c-0.600002,-0.400002 -1.100002,-0.799999 -1.700001,-1.299999c-0.099998,-0.100002 -0.299999,-0.200001 -0.400002,-0.299999c-6.199997,-4.900002 -10.799999,-11.400002 -13,-18.800001c-2.299999,-7.700001 -1.799999,-16.3 2.200001,-23.3"/>
  <path id="svg_3" fill="#ffffff" d="m53.599998,3.6c-3.599998,5.4 -3.899998,12.1 -1.399998,18.100001c2.599998,6.299999 7.899998,11.299999 14.100002,13.700001c0.299995,0.099998 0.5,0.199997 0.799995,0.299999c0.099998,0 0.200005,0.099998 0.300003,0.099998c0.400002,0.100002 0.699997,0.299999 1.099998,0.299999c17.199997,3.400002 21.800003,-9.099998 23.099998,-10.999998c-4.099998,6.1 -10.900002,7.499998 -19.400002,5.4c-0.699997,-0.200001 -1.399994,-0.4 -2,-0.700001c-0.799995,-0.299999 -1.599998,-0.599998 -2.399994,-1c-1.5,-0.699999 -2.900002,-1.599998 -4.200005,-2.699999c-7.599998,-5.800001 -12.299999,-17.1 -7.399998,-26.2"/>
 </g>
</svg>