<?xml version="1.0" encoding="utf-8"?>
<!-- Generator: Adobe Illustrator 18.1.1, SVG Export Plug-In . SVG Version: 6.00 Build 0)  -->
<svg version="1.1" id="Layer_1" xmlns="http://www.w3.org/2000/svg" xmlns:xlink="http://www.w3.org/1999/xlink" x="0px" y="0px"
	 viewBox="0 0 50 50" style="enable-background:new 0 0 50 50;" xml:space="preserve">
<path style="fill:#78CFF5;" d="M3.1,11.6c-4.4,6.6-3.8,15.1-0.5,22.1c0.1,0.2,0.2,0.3,0.3,0.5C3,34.3,3,34.4,3.1,34.5
	c0.1,0.1,0.1,0.1,0.1,0.2c0.1,0.1,0.1,0.2,0.2,0.3c0.1,0.2,0.2,0.4,0.3,0.6c0.1,0.1,0.1,0.2,0.2,0.3c0.1,0.2,0.3,0.4,0.4,0.6
	c0.1,0.1,0.1,0.2,0.2,0.3c0.2,0.3,0.4,0.5,0.5,0.8l0,0C5,37.7,5,37.7,5,37.8c0.2,0.2,0.3,0.5,0.5,0.7c0.1,0.1,0.1,0.2,0.2,0.3
	c0.2,0.2,0.3,0.4,0.5,0.6c0.1,0.1,0.1,0.2,0.2,0.2c0.2,0.3,0.4,0.5,0.6,0.7l0,0c0,0,0,0,0,0.1c0.2,0.2,0.4,0.5,0.6,0.7
	c0.1,0.1,0.2,0.2,0.2,0.2c0.2,0.2,0.3,0.4,0.5,0.5c0.1,0.1,0.2,0.2,0.2,0.2c0.2,0.2,0.5,0.4,0.7,0.7l0,0c0.1,0.1,0.1,0.1,0.1,0.1
	c0.2,0.2,0.4,0.4,0.6,0.6c0.1,0.1,0.2,0.2,0.3,0.2c0.2,0.2,0.4,0.3,0.5,0.4c0.1,0.1,0.2,0.2,0.3,0.2c0.2,0.2,0.4,0.3,0.6,0.4
	c0.1,0.1,0.2,0.1,0.2,0.2l0.1,0.1c0.2,0.2,0.4,0.3,0.6,0.4c0.1,0.1,0.2,0.1,0.3,0.2c0.3,0.2,0.6,0.4,0.9,0.6
	c0.1,0.1,0.2,0.1,0.3,0.2c0.2,0.2,0.5,0.3,0.7,0.4c0.1,0.1,0.3,0.2,0.4,0.2c0.2,0.1,0.3,0.2,0.5,0.3c0.1,0,0.1,0.1,0.1,0.1
	c0.1,0.1,0.2,0.1,0.2,0.1c0.3,0.1,0.5,0.3,0.8,0.4c0.1,0,0.1,0.1,0.2,0.1c0.3,0.2,0.6,0.3,0.9,0.4c0.1,0.1,0.2,0.1,0.2,0.1
	c0.3,0.1,0.6,0.2,0.9,0.3c0.1,0,0.1,0,0.1,0.1c0.3,0.1,0.6,0.2,1,0.3c0.1,0,0.2,0.1,0.2,0.1c0.3,0.1,0.6,0.2,1,0.3
	c21.4,4,27.6-13.3,27.6-13.3c-5.1,7.1-14.4,8.9-23.2,6.9c-0.3-0.1-0.6-0.2-1-0.3c-0.1,0-0.2-0.1-0.3-0.1c-0.3-0.1-0.6-0.2-1-0.3
	c-0.1,0-0.1-0.1-0.1-0.1c-0.3-0.1-0.5-0.2-0.9-0.3c-0.1-0.1-0.2-0.1-0.2-0.1c-0.3-0.1-0.6-0.3-0.9-0.4c-0.1-0.1-0.1-0.1-0.2-0.1
	c-0.3-0.1-0.5-0.3-0.7-0.4c-0.1-0.1-0.2-0.1-0.2-0.1c-0.2-0.1-0.4-0.2-0.6-0.3c-0.1-0.1-0.3-0.2-0.4-0.2c-0.2-0.1-0.5-0.3-0.7-0.4
	c-0.1-0.1-0.2-0.1-0.2-0.2c-0.3-0.2-0.6-0.4-0.9-0.6c-0.1-0.1-0.2-0.1-0.3-0.2c-0.2-0.2-0.4-0.3-0.6-0.4c-0.1-0.1-0.2-0.1-0.2-0.2
	c-0.2-0.2-0.4-0.3-0.6-0.5c-0.1-0.1-0.2-0.2-0.3-0.2c-0.2-0.2-0.4-0.3-0.5-0.4c-0.1-0.1-0.2-0.2-0.3-0.2c-0.2-0.2-0.5-0.4-0.7-0.6
	l-0.1-0.1c-0.3-0.2-0.5-0.5-0.7-0.7c-0.1-0.1-0.2-0.2-0.2-0.2c-0.2-0.2-0.4-0.4-0.5-0.5c-0.1-0.1-0.2-0.2-0.2-0.2
	c-0.2-0.2-0.4-0.5-0.6-0.7c0,0,0,0-0.1-0.1c-0.2-0.3-0.4-0.5-0.6-0.7c-0.1-0.1-0.1-0.2-0.2-0.2c-0.2-0.2-0.3-0.4-0.5-0.6
	C10.1,32.2,10,32.1,10,32c-0.2-0.3-0.4-0.5-0.5-0.7c-5-6.9-6.7-16.4-2.8-24.2"/>
<path style="fill:#78CFF5;" d="M16.9,6.1c-3.2,4.8-3,11.2-0.5,16.2c0.4,0.9,0.9,1.6,1.4,2.4c0.5,0.7,1,1.5,1.6,2.1
	c0.2,0.3,0.5,0.5,0.7,0.8c0.1,0.1,0.1,0.1,0.2,0.2c0.3,0.3,0.5,0.5,0.7,0.7c0,0,0,0,0.1,0.1l0,0c0.3,0.3,0.6,0.5,0.9,0.7
	c0.1,0.1,0.1,0.1,0.2,0.2c0.3,0.2,0.6,0.5,0.9,0.7l0,0c0.2,0.1,0.3,0.2,0.4,0.3c0.1,0.1,0.1,0.1,0.2,0.1c0.2,0.2,0.4,0.3,0.7,0.4
	c0.1,0,0.1,0.1,0.1,0.1c0.2,0.1,0.4,0.2,0.6,0.3c0.1,0.1,0.2,0.1,0.2,0.1c0.2,0.1,0.3,0.2,0.4,0.2c0,0,0.1,0,0.1,0.1
	c0.3,0.2,0.6,0.3,0.9,0.4c0.1,0.1,0.1,0.1,0.2,0.1c0.2,0.1,0.5,0.2,0.7,0.3c0.1,0.1,0.2,0.1,0.3,0.1c0.2,0.1,0.4,0.2,0.6,0.2
	c0.1,0.1,0.2,0.1,0.3,0.1c0.3,0.1,0.6,0.2,1,0.3C46.3,36.1,50.2,23,50.2,23c-3.5,5.1-10.1,7.5-17.2,5.7c-0.3-0.1-0.6-0.2-1-0.3
	c-0.1-0.1-0.2-0.1-0.3-0.1c-0.2-0.1-0.4-0.2-0.6-0.2C31,28,30.9,28,30.8,27.9c-0.2-0.1-0.5-0.2-0.7-0.3c-0.1-0.1-0.1-0.1-0.2-0.1
	c-0.3-0.1-0.6-0.3-0.9-0.4c-0.2-0.1-0.3-0.2-0.4-0.2c-0.1-0.1-0.2-0.1-0.3-0.1c-0.2-0.1-0.4-0.2-0.5-0.3c-0.1,0-0.1-0.1-0.1-0.1
	c-0.2-0.2-0.4-0.3-0.6-0.4c-0.1-0.1-0.1-0.1-0.2-0.2c-0.2-0.1-0.3-0.2-0.4-0.3c-0.3-0.2-0.6-0.4-0.9-0.7c-0.1-0.1-0.2-0.1-0.2-0.2
	c-3.3-2.6-5.7-6.1-6.9-10c-1.2-4.1-1-8.7,1.2-12.4"/>
<path style="fill:#78CFF5;" d="M28.5,1.9c-1.9,2.9-2.1,6.4-0.7,9.6c1.4,3.3,4.2,6,7.5,7.3c0.2,0.1,0.3,0.1,0.4,0.2
	c0.1,0,0.1,0.1,0.2,0.1c0.2,0.1,0.4,0.2,0.6,0.2c9.1,1.8,11.6-4.8,12.3-5.8c-2.2,3.2-5.8,4-10.3,2.9c-0.4-0.1-0.7-0.2-1.1-0.4
	c-0.4-0.2-0.9-0.3-1.3-0.5c-0.8-0.4-1.5-0.9-2.2-1.4c-4-3.1-6.5-9.1-3.9-13.9"/>
</svg>
