<?xml version="1.0" encoding="utf-8"?>
<!-- Generator: Adobe Illustrator 18.1.1, SVG Export Plug-In . SVG Version: 6.00 Build 0)  -->
<svg version="1.1" id="Layer_1" xmlns="http://www.w3.org/2000/svg" xmlns:xlink="http://www.w3.org/1999/xlink" x="0px" y="0px"
	 viewBox="0 0 70 70" style="enable-background:new 0 0 70 70;" xml:space="preserve">
<path style="fill:#12100B;" d="M35,69.9c-1.1,0-2.1-0.2-3-0.7l-9.7-5.1c-1.4-0.7-0.7-1-0.3-1.1c1.9-0.6,2.3-0.7,4.4-1.8
	c0.2-0.1,0.5-0.1,0.7,0l7.4,3.9c0.3,0.1,0.6,0.1,0.9,0l28.9-14.8c0.3-0.1,0.4-0.4,0.4-0.7V20c0-0.3-0.2-0.6-0.4-0.7L35.4,4.4
	c-0.3-0.1-0.6-0.1-0.9,0L5.6,19.3c-0.3,0.1-0.5,0.4-0.5,0.7v29.7c0,0.3,0.2,0.6,0.5,0.7l7.9,4.1c4.3,1.9,6.9-0.3,6.9-2.6V22.5
	c0-0.4,0.4-0.7,0.8-0.7H25c0.5,0,0.8,0.3,0.8,0.7v29.3c0,5.1-3.1,8-8.6,8c-1.7,0-3,0-6.7-1.6L3,54.3c-1.9-1-3-2.8-3-4.7V20
	c0-1.9,1.2-3.7,3-4.7L32,0.4c1.8-0.9,4.3-0.9,6.1,0L67,15.3c1.9,1,3,2.8,3,4.7v29.7c0,1.9-1.2,3.7-3,4.7L38,69.2
	C37.1,69.7,36.1,69.9,35,69.9z M57.1,40.4c0-5.6-3.7-7-11.5-8.1c-7.9-1.1-8.7-1.6-8.7-3.5c0-1.5,0.7-3.6,6.5-3.6
	c5.2,0,7.1,1.1,7.9,4.7c0.1,0.3,0.4,0.6,0.7,0.6h3.3c0.2,0,0.4-0.1,0.5-0.2c0.1-0.2,0.2-0.4,0.2-0.6c-0.5-6.1-4.5-9-12.6-9
	c-7.2,0-11.5,3.1-11.5,8.3c0,5.6,4.3,7.2,11.2,7.9c8.3,0.8,8.9,2.1,8.9,3.7c0,2.9-2.3,4.1-7.6,4.1c-6.7,0-8.2-1.7-8.7-5.1
	c-0.1-0.4-0.4-0.6-0.7-0.6h-3.3c-0.4,0-0.7,0.3-0.7,0.7c0,4.3,2.3,9.5,13.4,9.5C52.5,49.2,57.1,46,57.1,40.4z"/>
</svg>
