<?xml version="1.0"?>
<svg width="32" height="32" xmlns="http://www.w3.org/2000/svg" xmlns:svg="http://www.w3.org/2000/svg">
 <g>
  <title>Layer 1</title>
  <g id="icomoon-ignore"/>
  <path fill="#ffffff" d="m22.237696,1.426563l-14.200001,0c-0.799999,0 -1.4,0.599998 -1.4,1.400002l0,25.899998c0,0.799999 0.6,1.400002 1.4,1.400002l14.200001,0c0.799999,0 1.4,-0.600002 1.4,-1.400002l0,-25.900002c0,-0.799999 -0.6,-1.399998 -1.4,-1.399998zm0.4,27.299999c0,0.200001 -0.200001,0.400002 -0.4,0.400002l-14.200001,0c-0.199999,0 -0.4,-0.200001 -0.4,-0.400002l0,-5l14.9,0l0.1,5l0,0zm0,-6l-14.9,0l0,-17l14.9,0l0,17zm0,-18.099998l-14.9,0l0,-1.799999c0,-0.200001 0.199999,-0.400002 0.4,-0.400002l14.199999,0c0.200001,0 0.400002,0.200001 0.400002,0.400002l-0.1,1.799999l0,0z" id="svg_1"/>
  <path fill="#ffffff" d="m13.537695,25.926563l3.200003,0l0,1.099998l-3.200003,0c0,0 0,-1.099998 0,-1.099998z" id="svg_2"/>
 </g>
</svg>