<?xml version="1.0" encoding="utf-8"?>
<!-- Generator: Adobe Illustrator 18.1.1, SVG Export Plug-In . SVG Version: 6.00 Build 0)  -->
<svg version="1.1" id="Layer_1" xmlns="http://www.w3.org/2000/svg" xmlns:xlink="http://www.w3.org/1999/xlink" x="0px" y="0px"
	 viewBox="0 0 50 50" style="enable-background:new 0 0 50 50;" xml:space="preserve">
<g>
	<path style="fill:#725BB7;" d="M18.1,30.4V2.3c0-1.3-1-2.4-2.2-2.4H3.2C2-0.1,1,1,1,2.3v28.2c0,1.3,1,2.4,2.2,2.4h12.7
		C17.1,32.8,18.1,31.8,18.1,30.4z M14.4,1.4C14.7,1.4,15,1.6,15,2s-0.3,0.6-0.5,0.6C14.2,2.6,14,2.3,14,2S14.1,1.4,14.4,1.4z
		 M6.6,1.6h5.9v0.7H6.6V1.6z M2.7,25.2V3.9h13.8v21.3C16.5,25.2,2.7,25.2,2.7,25.2z M9.5,30.5c-0.8,0-1.4-0.7-1.4-1.5
		s0.6-1.5,1.4-1.5c0.8,0,1.4,0.7,1.4,1.5C11,29.8,10.3,30.5,9.5,30.5z"/>
	<polygon style="fill:#725BB7;" points="34.5,19.5 37.2,19.5 37.2,8.5 37.2,5.4 34.5,5.4 20.9,5.4 20.9,8.5 34.5,8.5 	"/>
	<polygon style="fill:#725BB7;" points="10.4,34.9 7.6,34.9 7.6,42.1 7.6,45.1 10.4,45.1 18.7,45.1 18.7,42.1 10.4,42.1 	"/>
	<path style="fill:#725BB7;" d="M47.1,21.2H23h-1.9v2V42v2.1h11.1V49h-2.8v1.2h2.8h5.6h2.8V49h-2.9v-4.9h11.1V42V23.2v-2H47.1z
		 M47.4,42.1H23V23.3h24.5L47.4,42.1L47.4,42.1z"/>
</g>
</svg>
