<?xml version="1.0" encoding="utf-8"?>
<!-- Generator: Adobe Illustrator 18.1.1, SVG Export Plug-In . SVG Version: 6.00 Build 0)  -->
<svg version="1.1" id="Layer_1" xmlns="http://www.w3.org/2000/svg" xmlns:xlink="http://www.w3.org/1999/xlink" x="0px" y="0px"
	 viewBox="0 0 50 50" style="enable-background:new 0 0 50 50;" xml:space="preserve">
<path style="fill-rule:evenodd;clip-rule:evenodd;fill:#CC679A;" d="M25,0c13.8,0,25,11.2,25,25c0,13.8-11.2,25-25,25
	C11.2,50,0,38.8,0,25C0,11.2,11.2,0,25,0L25,0z"/>
<g>
	<path style="fill:#FFFFFF;" d="M40.7,10.7c-1.1-4.4-8.5-5.9-15.5-3.4c-4.1,1.5-8.6,3.8-11.9,6.8c-3.8,3.6-4.4,6.7-4.2,8
		c0.9,4.6,7.2,7.6,9.8,9.9v0c-0.8,0.4-6.4,3.2-7.7,6.1c-1.4,3.1,0.2,5.3,1.3,5.5c3.3,0.9,6.7-0.7,8.5-3.4c1.7-2.6,1.6-6,0.8-7.7
		c1-0.3,2.3-0.4,3.8-0.2c4.4,0.5,5.2,3.3,5.1,4.4c-0.2,1.1-1.1,1.8-1.4,2c-0.3,0.2-0.4,0.3-0.4,0.4c0,0.2,0.2,0.2,0.4,0.2
		c0.4-0.1,2.3-0.9,2.4-3.1c0.1-2.7-2.5-5.7-7-5.6c-1.9,0-3.1,0.2-3.9,0.5c-0.1-0.1-0.1-0.1-0.2-0.2c-2.8-3-8-5.1-7.8-9.2
		c0.1-1.5,0.6-5.3,10-10c7.7-3.8,13.9-2.8,15-0.4c1.5,3.4-3.3,9.6-11.3,10.5c-3.1,0.3-4.7-0.8-5.1-1.3c-0.4-0.5-0.5-0.5-0.6-0.4
		c-0.3,0.1-0.1,0.6,0,0.8c0.2,0.6,1.2,1.7,2.9,2.3c1.5,0.5,5.1,0.7,9.4-0.9C38,20.3,41.8,15,40.7,10.7z M20.1,33.3
		c0.4,1.3,0.3,2.6-0.1,3.7c0,0.1-0.1,0.3-0.1,0.4c0,0.1-0.1,0.2-0.2,0.4c-0.3,0.6-0.7,1.2-1.2,1.7c-1.5,1.6-3.5,2.2-4.4,1.7
		c-0.9-0.5-0.5-2.8,1.2-4.6c1.8-1.9,4.4-3.1,4.4-3.1l0,0C19.9,33.4,20,33.4,20.1,33.3z"/>
</g>
</svg>
